<?xml version="1.0" encoding="utf-8"?>
<!-- Generator: Adobe Illustrator 22.0.1, SVG Export Plug-In . SVG Version: 6.00 Build 0)  -->
<svg version="1.1" id="Capa_1" xmlns="http://www.w3.org/2000/svg" xmlns:xlink="http://www.w3.org/1999/xlink" x="0px" y="0px"
	 viewBox="0 0 24 24" style="enable-background:new 0 0 24 24;" xml:space="preserve">
<style type="text/css">
	.st0{fill:none;stroke:#000000;stroke-width:2;stroke-linecap:round;stroke-linejoin:round;}
</style>
<path class="st0" d="M3,6h14c1.1,0,2,0.9,2,2v8c0,1.1-0.9,2-2,2H3c-1.1,0-2-0.9-2-2V8C1,6.9,1.9,6,3,6z"/>
<line class="st0" x1="23" y1="13" x2="23" y2="11"/>
<path d="M4.8,16L4.8,16c-1.2,0-2.1-0.9-2.1-2.1v-3.8C2.7,8.9,3.6,8,4.8,8l0,0C6,8,6.9,8.9,6.9,10.1v3.8C6.9,15.1,6,16,4.8,16z"/>
<path d="M10,16L10,16c-1.2,0-2.1-0.9-2.1-2.1v-3.8C7.9,8.9,8.8,8,10,8l0,0c1.2,0,2.1,0.9,2.1,2.1v3.8C12.1,15.1,11.2,16,10,16z"/>
<path d="M15.2,16L15.2,16c-1.2,0-2.1-0.9-2.1-2.1v-3.8C13.1,8.9,14,8,15.2,8l0,0c1.2,0,2.1,0.9,2.1,2.1v3.8
	C17.3,15.1,16.3,16,15.2,16z"/>
</svg>
