<?xml version="1.0" encoding="utf-8"?>
<!-- Generator: Adobe Illustrator 22.0.1, SVG Export Plug-In . SVG Version: 6.00 Build 0)  -->
<svg version="1.1" id="Capa_1" xmlns="http://www.w3.org/2000/svg" xmlns:xlink="http://www.w3.org/1999/xlink" x="0px" y="0px"
	 viewBox="0 0 24 23.7" style="enable-background:new 0 0 24 23.7;" xml:space="preserve">
<path d="M9.2,20.2c-0.9,0.1-1-0.3-0.8-1c1.7-5,3.3-9.9,5-14.9c0.2-0.6,0.3-0.7,0.9-0.7c0.2,0,0.3,0,0.5,0c0.5,0,0.7,0.3,0.5,0.7
	C15,5.5,14.6,6.7,14.2,8c-1.3,3.8-2.5,7.6-3.8,11.4C10.1,20.1,10,20.2,9.2,20.2z"/>
<path d="M21.8,11.9c-1.1-1.4-2.2-2.7-3.3-4c-0.4-0.5-0.4-0.7,0.1-1.2c0.7-0.6,0.9-0.4,1.4,0.1c1.3,1.5,2.5,3,3.8,4.6
	c0.3,0.3,0.3,0.6,0,0.9c-1.3,1.6-2.7,3.2-4,4.8c-0.4,0.4-0.6,0.5-1,0.1c-0.1-0.1-0.3-0.2-0.4-0.3c-0.3-0.3-0.3-0.5-0.1-0.8
	c1-1.2,2-2.5,3.1-3.7C21.5,12.2,21.6,12,21.8,11.9z"/>
<path d="M2.1,11.9c0.8,1,1.6,1.9,2.4,2.8c0.4,0.4,0.8,0.9,1.1,1.3c0.2,0.3,0.2,0.6-0.1,0.9c-0.1,0.1-0.2,0.2-0.3,0.3
	c-0.5,0.4-0.7,0.4-1.1-0.1c-1.1-1.3-2.3-2.7-3.4-4.1c-0.2-0.3-0.4-0.5-0.6-0.8c-0.2-0.3-0.2-0.5,0-0.8c1.4-1.6,2.7-3.3,4.1-4.9
	c0.3-0.3,0.6-0.4,0.9,0c0.1,0.1,0.2,0.2,0.3,0.3c0.3,0.3,0.4,0.5,0.1,0.9C4.8,8.6,4,9.5,3.3,10.5C2.9,10.9,2.5,11.4,2.1,11.9z"/>
</svg>
