<?xml version="1.0" encoding="utf-8"?>
<!-- Generator: Adobe Illustrator 22.0.1, SVG Export Plug-In . SVG Version: 6.00 Build 0)  -->
<svg version="1.1" id="Capa_1" xmlns="http://www.w3.org/2000/svg" xmlns:xlink="http://www.w3.org/1999/xlink" x="0px" y="0px"
	 viewBox="0 0 24 23.7" style="enable-background:new 0 0 24 23.7;" xml:space="preserve">
<style type="text/css">
	.st0{fill:#FDFCFD;}
</style>
<path d="M0.2,11.8c0-3,0-6,0-9c0-1.4,0.8-2.4,2-2.7C2.4,0,2.7,0,3,0c6,0,12,0,18,0c1.7,0,2.8,1.1,2.8,2.8c0,6,0,12,0,18
	c0,1.7-1.1,2.8-2.8,2.8c-6,0-12,0-18,0c-1.7,0-2.8-1.1-2.8-2.9C0.1,17.8,0.2,14.8,0.2,11.8z M12.2,2.6c-1.5,0-2.9,0-4.4,0
	C7.5,2.6,7.4,2.7,7.4,3c0,0.4,0,0.8,0,1.2c0,0.3-0.1,0.4-0.4,0.4c-1.1,0-2.2,0-3.3,0c-0.2,0-0.3,0-0.3,0.3c0.1,0.8,0.2,1.6,0.3,2.5
	c0.1,0.8,0.3,1.5,0.2,2.3C4,10.2,4,10.8,4,11.3c-0.2,2.5-0.3,4.9-0.5,7.4c0,0.3,0.1,0.3,0.3,0.2c1.1-0.3,2.1-0.6,3.2-1
	c0.5-0.1,0.5-0.1,0.5,0.3c0,0.9,0,1.8,0,2.7c0,0.2,0,0.3,0.3,0.3c1.8-0.4,3.6-0.7,5.4-1.1c0.2,0,0.3-0.2,0.3-0.4c0-0.7,0-1.5,0-2.2
	c0-0.3,0-0.4,0.3-0.3c0.9,0.1,1.8,0.1,2.7,0.2c1.3,0.1,2.6,0.2,3.9,0.3c0.3,0,0.3-0.1,0.3-0.3c-0.1-0.6-0.1-1.1-0.1-1.7
	c-0.2-2.3-0.3-4.7-0.5-7c0-0.1,0-0.3,0-0.4c0.2-1.1,0.4-2.2,0.6-3.3c0.1-0.3,0-0.4-0.4-0.4c-1.1,0-2.2,0-3.3,0c-0.2,0-0.3,0-0.2-0.3
	c0.1-0.4,0.2-0.9,0.3-1.4c0.1-0.3,0-0.3-0.3-0.3C15.1,2.6,13.6,2.6,12.2,2.6z"/>
<path class="st0" d="M12.2,2.5c1.5,0,2.9,0,4.4,0c0.3,0,0.3,0,0.3,0.3c-0.1,0.4-0.2,0.9-0.3,1.4c-0.1,0.3,0,0.3,0.2,0.3
	c1.1,0,2.2,0,3.3,0c0.3,0,0.4,0.1,0.4,0.4c-0.2,1.1-0.4,2.2-0.6,3.3c0,0.1,0,0.3,0,0.4c0.2,2.3,0.3,4.7,0.5,7c0,0.6,0.1,1.1,0.1,1.7
	c0,0.3,0,0.3-0.3,0.3c-1.3-0.1-2.6-0.2-3.9-0.3c-0.9-0.1-1.8-0.1-2.7-0.2c-0.3,0-0.3,0.1-0.3,0.3c0,0.7,0,1.5,0,2.2
	c0,0.2,0,0.3-0.3,0.4c-1.8,0.3-3.6,0.7-5.4,1.1c-0.3,0.1-0.3-0.1-0.3-0.3c0-0.9,0-1.8,0-2.7c0-0.5,0-0.5-0.5-0.3
	c-1.1,0.3-2.1,0.6-3.2,1c-0.2,0.1-0.3,0.1-0.3-0.2c0.2-2.5,0.3-4.9,0.5-7.4c0-0.5,0.1-1.1,0.1-1.6C4.2,8.8,3.9,8,3.8,7.2
	C3.8,6.4,3.6,5.6,3.5,4.8c0-0.2,0-0.3,0.3-0.3c1.1,0,2.2,0,3.3,0c0.3,0,0.4-0.1,0.4-0.4c0-0.4,0-0.8,0-1.2c0-0.3,0.1-0.4,0.4-0.4
	C9.2,2.5,10.7,2.5,12.2,2.5z M8.7,11.7c0,2.5,0,5,0,7.5c0,0.3,0.1,0.4,0.4,0.3c0.8-0.2,1.7-0.4,2.5-0.5C12,19,12,18.8,12,18.5
	c0-1.7,0-3.4,0-5.1c0-0.3,0.1-0.4,0.4-0.4c0.7,0,1.3,0,2,0c0.2,0,0.3-0.1,0.3-0.3c0-0.9,0-1.8,0-2.7c0-0.3-0.1-0.3-0.3-0.3
	c-0.7,0-1.4,0-2,0c-0.2,0-0.3-0.1-0.3-0.3c0-0.7,0-1.4,0-2c0-0.2,0.1-0.3,0.3-0.3c0.7,0,1.4,0,2,0c0.2,0,0.3-0.1,0.4-0.3
	c0.2-0.9,0.3-1.8,0.5-2.6c0.1-0.3,0-0.4-0.3-0.4c-2,0-3.9,0-5.9,0c-0.3,0-0.4,0.1-0.4,0.4C8.7,6.7,8.7,9.2,8.7,11.7z"/>
<path d="M8.7,11.9c0-2.5,0-5,0-7.6C8.7,4,8.8,4,9.1,4c2,0,3.9,0,5.9,0c0.3,0,0.4,0.1,0.3,0.4c-0.2,0.9-0.4,1.8-0.5,2.6
	c0,0.2-0.1,0.3-0.4,0.3c-0.7,0-1.4,0-2,0c-0.3,0-0.3,0.1-0.3,0.3c0,0.7,0,1.4,0,2c0,0.2,0.1,0.3,0.3,0.3c0.7,0,1.4,0,2,0
	c0.2,0,0.3,0,0.3,0.3c0,0.9,0,1.8,0,2.7c0,0.2-0.1,0.3-0.3,0.3c-0.7,0-1.3,0-2,0c-0.3,0-0.4,0.1-0.4,0.4c0,1.7,0,3.4,0,5.1
	c0,0.3-0.1,0.5-0.4,0.5c-0.9,0.1-1.7,0.3-2.5,0.5c-0.3,0.1-0.4,0-0.4-0.3C8.7,16.9,8.7,14.4,8.7,11.9z"/>
</svg>
