<?xml version="1.0" encoding="utf-8"?>
<!-- Generator: Adobe Illustrator 22.0.1, SVG Export Plug-In . SVG Version: 6.00 Build 0)  -->
<svg version="1.1" id="Capa_1" xmlns="http://www.w3.org/2000/svg" xmlns:xlink="http://www.w3.org/1999/xlink" x="0px" y="0px"
	 viewBox="0 0 24 23.7" style="enable-background:new 0 0 24 23.7;" xml:space="preserve">
<path d="M23.3,10.8L13,0.5c-0.6-0.6-1.5-0.6-2.1,0L8.8,2.7l2.7,2.7c0.6-0.2,1.4-0.1,1.8,0.4C13.8,6.3,14,7,13.8,7.7l2.6,2.6
	c0.6-0.2,1.4-0.1,1.9,0.4c0.7,0.7,0.7,1.8,0,2.5c-0.7,0.7-1.8,0.7-2.5,0c-0.5-0.5-0.7-1.3-0.4-2l-2.4-2.4v6.4
	c0.2,0.1,0.3,0.2,0.5,0.3c0.7,0.7,0.7,1.8,0,2.5c-0.7,0.7-1.8,0.7-2.6,0c-0.7-0.7-0.7-1.8,0-2.5c0.2-0.2,0.4-0.3,0.6-0.4V8.8
	c-0.2-0.1-0.4-0.2-0.6-0.4c-0.5-0.5-0.7-1.3-0.4-2L7.7,3.7l-7,7c-0.6,0.6-0.6,1.6,0,2.1L11,23.2c0.6,0.6,1.5,0.6,2.1,0l10.2-10.2
	C23.9,12.4,23.9,11.4,23.3,10.8"/>
</svg>
