<?xml version="1.0" encoding="utf-8"?>
<!-- Generator: Adobe Illustrator 22.0.1, SVG Export Plug-In . SVG Version: 6.00 Build 0)  -->
<svg version="1.1" id="Capa_1" xmlns="http://www.w3.org/2000/svg" xmlns:xlink="http://www.w3.org/1999/xlink" x="0px" y="0px"
	 viewBox="0 0 24 23.7" style="enable-background:new 0 0 24 23.7;" xml:space="preserve">
<style type="text/css">
	.st0{fill:#FFFFFF;}
</style>
<path d="M0,12.1c0-2.3,0.6-4.2,1.7-5.9c1.2-1.7,2.7-3,4.7-3.8C7.2,2.1,8,1.8,8.9,1.7c0.4,0,0.7-0.1,1.1-0.1c3.6,0,7.2,0,10.8,0
	c0.6,0,1.1,0.1,1.7,0.4c1,0.6,1.5,1.5,1.6,2.7c0,0.3-0.1,0.5-0.2,0.8c-1.2,3-2.4,6-3.6,9c-0.3,0.7-0.5,1.4-0.9,2.1
	c-0.9,1.7-2.1,3-3.7,4c-0.9,0.5-1.8,0.9-2.7,1.2c-1.3,0.3-2.6,0.5-3.9,0.2c-0.7-0.1-1.3-0.2-1.9-0.4c-1.1-0.4-2.1-1-3-1.7
	c-0.9-0.7-1.6-1.5-2.2-2.5c-0.9-1.3-1.3-2.8-1.6-4.3C0,12.7,0,12.3,0,12.1z M10.2,3.6C5.8,3.6,1.8,7.3,2,12.3
	c0.2,4.3,3.7,7.9,8.2,7.9c4.6,0,8.3-3.8,8.3-8.4C18.4,7.2,14.6,3.6,10.2,3.6z M19.7,6.7c0.1-0.2,0.2-0.3,0.3-0.4
	c0.5-0.6,0.9-1.1,1.3-1.8C21.6,4,21.4,3.3,21,3c-0.5-0.3-1.4-0.2-1.8,0.2C19.1,3.3,19,3.6,19,3.8c0,0.1,0,0.1,0,0.2
	c0.2,0.1,0.7,0,0.7-0.2c0.1-0.3,0.3-0.5,0.6-0.4c0.3,0,0.4,0.3,0.4,0.6c0,0.2,0,0.4-0.1,0.5C20.4,4.7,20.2,5,20,5.2
	c-0.3,0.4-0.6,0.9-1,1.3c-0.2,0.2-0.2,0.5-0.1,0.7c0.1,0.2,0.3,0.1,0.4,0.1c0.6,0,1.2,0,1.8,0c0.3,0,0.2-0.1,0.2-0.3
	c0-0.2,0-0.3-0.2-0.3C20.7,6.7,20.2,6.7,19.7,6.7z"/>
<path class="st0" d="M10.2,3.6c4.4-0.1,8.2,3.6,8.2,8.2c0.1,4.6-3.7,8.4-8.3,8.4c-4.5,0-8.1-3.6-8.2-7.9C1.8,7.3,5.8,3.6,10.2,3.6z
	 M4.9,16.7c0.8,0,1.5,0,2.2,0c0.1,0,0.2,0,0.3-0.1c0.3-0.6,0.8-1.2,1.1-1.8c0.5-0.9,1.1-1.7,1.6-2.7c0-0.1,0.1-0.1,0.2-0.1
	c0.1,0,0.1,0.1,0.2,0.2c0.2,0.4,0.3,0.7,0.4,1.1c0.4,1.1,0.9,2.3,1.3,3.4c0.2,0.5,0.2,0.5,0.8,0.3c0.1,0,0.1,0,0.2,0
	c0.9-0.3,1.8-0.6,2.6-0.8c0.1,0,0.2-0.1,0.1-0.2c-0.2-0.5-0.4-1-0.5-1.5c-0.1-0.2-0.2-0.2-0.3-0.1c-0.3,0.1-0.7,0.2-1,0.3
	c-0.2,0.1-0.2,0-0.3-0.1c-0.1-0.2-0.1-0.5-0.2-0.7c-0.4-0.9-0.7-1.8-1.1-2.7c-0.7-1.7-1.3-3.3-1.9-5c0-0.1-0.1-0.2-0.3-0.2
	c-0.9,0-1.8,0-2.6,0c-0.2,0-0.2,0.1-0.2,0.3c0,0.5,0,0.9,0,1.4c0,0.2,0.1,0.2,0.2,0.2c0.3,0,0.6,0,1,0c0.2,0,0.3,0.1,0.4,0.2
	C9,8.2,9.1,8.5,9.3,8.8c0.1,0.2,0.1,0.3,0,0.5c-0.7,1.3-1.5,2.6-2.2,3.9C6.3,14.3,5.7,15.5,4.9,16.7z"/>
<path class="st0" d="M19.7,6.7c0.5,0,1,0,1.4,0c0.2,0,0.3,0.1,0.2,0.3c0,0.2,0,0.3-0.2,0.3c-0.6,0-1.2,0-1.8,0
	c-0.2,0-0.4,0.1-0.4-0.1c-0.1-0.2-0.1-0.5,0.1-0.7c0.3-0.4,0.7-0.8,1-1.3c0.2-0.3,0.4-0.5,0.5-0.8c0.1-0.2,0.1-0.3,0.1-0.5
	c0-0.3-0.1-0.5-0.4-0.6c-0.3,0-0.5,0.1-0.6,0.4c-0.1,0.2-0.6,0.3-0.7,0.2c-0.1,0,0-0.1,0-0.2c0-0.2,0.1-0.4,0.3-0.6
	C19.6,2.8,20.5,2.7,21,3c0.4,0.3,0.6,1,0.3,1.6c-0.3,0.6-0.8,1.2-1.3,1.8C19.9,6.4,19.8,6.5,19.7,6.7z"/>
<path d="M4.9,16.7c0.7-1.2,1.4-2.4,2.1-3.6c0.7-1.3,1.5-2.6,2.2-3.9c0.1-0.2,0.1-0.3,0-0.5C9.1,8.5,9,8.2,8.9,7.9
	C8.9,7.8,8.8,7.7,8.6,7.7c-0.3,0-0.6,0-1,0c-0.2,0-0.2-0.1-0.2-0.2c0-0.5,0-0.9,0-1.4c0-0.2,0-0.3,0.2-0.3c0.9,0,1.8,0,2.6,0
	c0.1,0,0.2,0.1,0.3,0.2c0.6,1.7,1.3,3.3,1.9,5c0.4,0.9,0.7,1.8,1.1,2.7c0.1,0.2,0.1,0.5,0.2,0.7c0.1,0.1,0.1,0.2,0.3,0.1
	c0.3-0.1,0.7-0.2,1-0.3c0.2-0.1,0.3-0.1,0.3,0.1c0.2,0.5,0.3,1,0.5,1.5c0,0.1,0,0.2-0.1,0.2c-0.9,0.3-1.8,0.5-2.6,0.8
	c-0.1,0-0.1,0-0.2,0c-0.5,0.2-0.5,0.2-0.8-0.3c-0.4-1.1-0.9-2.2-1.3-3.4c-0.1-0.4-0.3-0.7-0.4-1.1c0-0.1,0-0.2-0.2-0.2
	c-0.1,0-0.2,0-0.2,0.1c-0.4,0.9-1.1,1.8-1.6,2.7c-0.3,0.6-0.8,1.2-1.1,1.8c-0.1,0.1-0.2,0.1-0.3,0.1C6.4,16.7,5.7,16.7,4.9,16.7z"/>
</svg>
