<?xml version="1.0" encoding="utf-8"?>
<!-- Generator: Adobe Illustrator 22.0.1, SVG Export Plug-In . SVG Version: 6.00 Build 0)  -->
<svg version="1.1" id="Capa_1" xmlns="http://www.w3.org/2000/svg" xmlns:xlink="http://www.w3.org/1999/xlink" x="0px" y="0px"
	 viewBox="0 0 24 23.7" style="enable-background:new 0 0 24 23.7;" xml:space="preserve">
<style type="text/css">
	.st0{fill:#FFFFFF;}
</style>
<g>
	<path d="M15.4,1.5c1.9,0,3.7,0,5.6,0c2.5,0,3.6,2.6,2.9,4.3c-1.4,3.2-2.6,6.4-3.9,9.5c-1.7,4.1-4.7,6.5-9.2,6.8
		c-3.5,0.3-6.5-1.1-8.6-3.9c-4-5-2.6-12.1,3-15.3C6.7,2,8.5,1.5,10.3,1.5C12,1.5,13.7,1.5,15.4,1.5C15.4,1.5,15.4,1.5,15.4,1.5z
		 M18.6,11.9c0-4.6-3.8-8.4-8.4-8.3c-4.6,0-8.3,3.7-8.3,8.3c0,4.6,3.8,8.4,8.4,8.4C14.9,20.3,18.6,16.5,18.6,11.9z"/>
	<path class="st0" d="M18.6,11.9c0,4.6-3.7,8.4-8.3,8.4c-4.6,0-8.4-3.8-8.4-8.4c0-4.6,3.7-8.3,8.3-8.3C14.8,3.5,18.6,7.3,18.6,11.9z
		 M10.2,12.4c0,0.1,0.1,0.2,0.1,0.2c0.6,1.5,1.2,3.1,1.8,4.6c0.1,0.3,0.3,0.4,0.6,0.3c0.7-0.2,1.4-0.5,2.2-0.7c1-0.3,1-0.3,0.7-1.4
		c-0.3-0.9-0.3-1-1.2-0.6c-0.4,0.2-0.6,0-0.7-0.4c-1-2.7-2.1-5.3-3.1-8c-0.1-0.3-0.3-0.4-0.6-0.4c-0.5,0-1.1,0-1.6,0
		c-1.1,0-1.1,0-1.1,1.1c0,0.9,0,0.9,0.9,0.9c0.2,0,0.6-0.2,0.7,0.2C8.8,8.8,9.3,9.2,9,9.8c-1.4,2.3-2.7,4.6-4.1,6.9
		c-0.1,0.1-0.2,0.3-0.2,0.5c0.7,0,1.3,0,2,0c0.3,0,0.5-0.1,0.6-0.4c0.8-1.4,1.7-2.7,2.5-4.1C9.9,12.7,10,12.5,10.2,12.4z"/>
	<path d="M10.2,12.4c-0.2,0.1-0.2,0.2-0.3,0.4c-0.8,1.4-1.7,2.7-2.5,4.1c-0.2,0.3-0.3,0.4-0.6,0.4c-0.7,0-1.3,0-2,0
		c0-0.2,0.1-0.4,0.2-0.5c1.3-2.3,2.7-4.6,4.1-6.9c0.4-0.6-0.1-1-0.3-1.5C8.6,8,8.3,8.1,8,8.1c-0.9,0-0.9,0-0.9-0.9
		c0-1.1,0-1.1,1.1-1.1c0.5,0,1.1,0,1.6,0c0.3,0,0.5,0.1,0.6,0.4c1,2.7,2.1,5.3,3.1,8c0.2,0.4,0.3,0.5,0.7,0.4
		c0.9-0.4,0.9-0.3,1.2,0.6c0.3,1,0.3,1-0.7,1.4c-0.7,0.2-1.4,0.4-2.2,0.7c-0.3,0.1-0.5,0.1-0.6-0.3c-0.6-1.6-1.2-3.1-1.8-4.6
		C10.3,12.6,10.2,12.5,10.2,12.4z"/>
</g>
</svg>
