<?xml version="1.0" encoding="utf-8"?>
<!-- Generator: Adobe Illustrator 22.0.1, SVG Export Plug-In . SVG Version: 6.00 Build 0)  -->
<svg version="1.1" id="Capa_1" xmlns="http://www.w3.org/2000/svg" xmlns:xlink="http://www.w3.org/1999/xlink" x="0px" y="0px"
	 viewBox="0 0 24 23.7" style="enable-background:new 0 0 24 23.7;" xml:space="preserve">
<path d="M18.7,11.7c0,1.7-0.1,3.3-0.6,5c-0.6,2.2-1.7,4.1-3.4,5.6c-0.5,0.5-1.1,0.9-1.7,1.2c-0.7,0.3-1.3,0.3-2,0
	c-1-0.5-1.8-1.2-2.5-2C7,19.8,6,17.9,5.7,15.7c-0.1-0.7-0.2-1.5-0.3-2.3c-0.1-0.9-0.1-1.9,0-2.8c0.2-3.2,0.8-6.3,2.5-9.1
	c0.2-0.4,0.5-0.8,0.8-1.1c0.1-0.1,0.2-0.2,0.4-0.3C9.2,0,9.4,0,9.5,0.1c0.1,0.1,0.1,0.3,0.1,0.4c0,0.4-0.1,0.7-0.2,1
	C9.1,2.8,8.9,4,8.8,5.3c-0.1,1.6,0,3.1,0.5,4.6c0.3,0.9,0.8,1.8,1.6,2.5c0.1,0.1,0.1,0.1,0.2,0.2c0.5,0.4,1.1,0.4,1.6,0
	c0.5-0.4,0.9-0.8,1.2-1.4c0.7-1.2,1-2.4,1.1-3.8c0.2-2.1-0.2-4.2-0.7-6.3c-0.1-0.2-0.1-0.4-0.1-0.6c0-0.4,0.2-0.5,0.5-0.3
	c0.3,0.2,0.6,0.5,0.8,0.7c0.8,1,1.3,2.2,1.7,3.4c0.6,1.6,0.9,3.2,1.1,4.8C18.5,9.9,18.6,10.8,18.7,11.7z M10.8,20.6
	C10.8,20.6,10.9,20.6,10.8,20.6c-0.1-0.5-0.1-0.9-0.3-1.4c-0.3-0.9-1-1.5-1.9-1.6c-0.5-0.1-0.9,0.1-1,0.5c-0.1,0.2-0.1,0.4-0.1,0.6
	c0.1,0.9,0.6,1.6,1.3,2.2c0.4,0.3,0.8,0.5,1.4,0.6c0.3,0,0.5-0.1,0.6-0.4C10.8,20.9,10.8,20.7,10.8,20.6z M13.1,20.6
	c0,0,0,0.1,0,0.1c0,0.7,0.3,0.9,0.9,0.7c0.8-0.2,1.3-0.7,1.8-1.3c0.4-0.5,0.6-1.1,0.6-1.7c0-0.6-0.3-0.9-0.9-0.9
	c-0.4,0-0.8,0.1-1.2,0.4C13.5,18.6,13.2,19.6,13.1,20.6z"/>
</svg>
