<?xml version="1.0" encoding="utf-8"?>
<!-- Generator: Adobe Illustrator 22.0.1, SVG Export Plug-In . SVG Version: 6.00 Build 0)  -->
<svg version="1.1" id="Capa_1" xmlns="http://www.w3.org/2000/svg" xmlns:xlink="http://www.w3.org/1999/xlink" x="0px" y="0px"
	 viewBox="0 0 24 23.7" style="enable-background:new 0 0 24 23.7;" xml:space="preserve">
<path d="M12.2,23.7c-0.1,0-0.3,0-0.4,0c-0.6-0.1-1.3-0.2-1.9-0.3C7.2,23,5.3,21.6,4.6,19c-0.3-1.2-0.5-2.5-0.6-3.8
	c-0.2-1.4-0.5-2.7-1.3-3.8c-0.6-0.8-1.1-1.7-1.4-2.6c-1-2.8,0.3-6.6,2.8-8.3c0.2-0.1,0.4-0.2,0.6-0.3c0.5-0.2,0.8,0,0.8,0.6
	c0,0.2,0,0.5-0.1,0.7c0,0.3,0,0.6,0.4,0.7c0.4,0,0.5,0.3,0.4,0.6C6.1,3.2,5.9,3.6,5.6,3.9C4.6,5,4.2,6.3,4.4,7.7
	c0.2,1.3,0.9,1.8,2.2,1.6c1.7-0.2,3.4-0.5,5.1-0.4c1.9,0,3.8,0.3,5.8,0.5c1,0.1,1.6-0.2,1.9-1.2c0.1-0.3,0.1-0.6,0.2-1
	c0.1-1.3-0.4-2.4-1.2-3.4c-0.3-0.3-0.5-0.7-0.6-1.1c-0.1-0.1,0.2-0.6,0.3-0.6c0.6,0,0.6-0.4,0.5-0.8c0-0.5-0.2-1,0.4-1.4
	C19,0,19,0,19,0c0.9,0.5,1.7,1.1,2.3,1.9c1.4,1.9,2,4,1.5,6.4c-0.2,1.1-0.8,2-1.5,2.9c-0.7,0.9-1.1,1.9-1.3,3
	c-0.2,1.3-0.3,2.5-0.5,3.8c-0.5,3.1-2.5,5-5.6,5.5C13.4,23.6,12.8,23.7,12.2,23.7z M16.6,14.6c-1,0-1.6,0.4-2.2,1
	c-0.8,0.9-1.2,2-1.3,3.2c-0.1,1.5,0.6,2.6,2,2.7c0.8,0.1,1.5-0.2,2-0.8c1.2-1.3,1.6-2.9,1.3-4.6C18.3,15.2,17.5,14.6,16.6,14.6z
	 M7.5,14.6c-1,0-1.8,0.6-2,1.6c-0.1,0.5-0.2,1-0.1,1.6c0.1,1.4,0.6,2.7,1.9,3.5c1.5,1,3.3,0.1,3.4-1.7c0.1-1.6-0.4-3-1.4-4.1
	C8.8,14.9,8.3,14.6,7.5,14.6z"/>
</svg>
