<?xml version="1.0" encoding="utf-8"?>
<!-- Generator: Adobe Illustrator 22.0.1, SVG Export Plug-In . SVG Version: 6.00 Build 0)  -->
<svg version="1.1" id="Capa_1" xmlns="http://www.w3.org/2000/svg" xmlns:xlink="http://www.w3.org/1999/xlink" x="0px" y="0px"
	 viewBox="0 0 24 23.7" style="enable-background:new 0 0 24 23.7;" xml:space="preserve">
<path d="M19.4,8.3c-0.2-4.4-2.1-7.8-4.9-8.4c-2.6-0.5-5.4,2.3-7.3,5.7c1.3-3,1-2.4,2.1-4.1C8.2,2,6.3,5,5.2,9.5c-0.2,1-0.5,3-0.5,3
	c-0.7,5.3,1.4,10.8,4.8,11.3c2.9,0.5,5.9-1.8,7.8-5.8c0.7-1.4,1.2-3,1.6-4.7C19.3,11.6,19.5,9.9,19.4,8.3z M10.8,20.5
	c-0.8-0.1-2.6-1.9-3.3-4.4c-0.1,0.5,0.7,5.2,3.7,5.9c0.5,0.1,0.9,0.1,1.4,0c-0.7,0.4-2.4,0.5-3.3-0.1c-1.9-1.2-3.3-4-2.2-10.9
	c0.4-2.9,1.8-5.1,3-6.9c1-1.4,2.8-2.5,3.9-2.2c0.7,0.2,1.7,1,2.1,2c0.7,1.9,0.8,6.3,0.1,7.7c1.6-1.6,1.2-6.6,1.2-6.7
	c0.1,0.1,0.6,4.5,0.1,7.2C16.4,17.7,13.5,21,10.8,20.5z"/>
</svg>
