<?xml version="1.0" encoding="utf-8"?>
<!-- Generator: Adobe Illustrator 22.0.1, SVG Export Plug-In . SVG Version: 6.00 Build 0)  -->
<svg version="1.1" id="Capa_1" xmlns="http://www.w3.org/2000/svg" xmlns:xlink="http://www.w3.org/1999/xlink" x="0px" y="0px"
	 viewBox="0 0 24 23.7" style="enable-background:new 0 0 24 23.7;" xml:space="preserve">
<style type="text/css">
	.st0{fill:none;stroke:#000000;stroke-width:0.7782;stroke-linecap:round;stroke-miterlimit:10;}
</style>
<g>
	<path d="M0.1,11.9C0.1,5.3,5.4,0,12,0c6.6,0,11.9,5.3,11.9,11.9c0,6.6-5.3,11.9-11.9,11.9C5.4,23.7,0.1,18.4,0.1,11.9z M13.2,5.7
		c0.7,0.1,1.3,0.3,1.9,0.4c0.3,0.1,0.6,0.1,0.7,0.5c0.2,0.5,0.8,0.8,1.3,0.8c0.5-0.1,1-0.5,1.1-1C18.2,5.8,18,5.3,17.5,5
		c-0.5-0.3-1-0.2-1.5,0.2c-0.2,0.2-0.4,0.3-0.7,0.2c-0.7-0.2-1.4-0.3-2.1-0.5c-0.4-0.1-0.6,0-0.7,0.4c0,0.2-0.1,0.3-0.1,0.5
		c-0.2,1.1-0.5,2.3-0.7,3.3c-0.9,0.2-1.7,0.3-2.4,0.5c-0.8,0.2-1.5,0.6-2.3,1c-1-0.6-1.9-0.5-2.5,0.3c-0.6,0.8-0.4,2,0.5,2.5
		c0.1,0.1,0.2,0.2,0.2,0.3c-0.1,1.5,0.7,2.6,1.8,3.5c1.5,1.1,3.2,1.5,5,1.6c2,0,3.9-0.5,5.5-1.8c0.9-0.8,1.5-1.7,1.5-3
		c0-0.3,0.1-0.6,0.4-0.8c0.6-0.5,0.8-1.3,0.5-2c-0.3-0.7-1-1.2-1.8-1.1c-0.4,0.1-0.7,0.2-1.1,0.4c-1.3-0.9-2.8-1.3-4.4-1.4
		C12.7,8,12.9,6.9,13.2,5.7z"/>
	<path d="M10.5,13.2c0,0.7-0.5,1.2-1.2,1.2c-0.7,0-1.2-0.5-1.2-1.2c0-0.7,0.5-1.2,1.2-1.2C10,12,10.5,12.5,10.5,13.2z"/>
	<path d="M15.9,13.2c0,0.7-0.5,1.2-1.2,1.2c-0.7,0-1.2-0.5-1.2-1.2c0-0.7,0.5-1.2,1.2-1.2C15.4,12,15.9,12.5,15.9,13.2z"/>
	<path class="st0" d="M9.1,16.2l0.5,0.3c1.5,0.7,3.3,0.7,4.8,0l0.4-0.3"/>
</g>
</svg>
