<?xml version="1.0" encoding="utf-8"?>
<!-- Generator: Adobe Illustrator 22.0.1, SVG Export Plug-In . SVG Version: 6.00 Build 0)  -->
<svg version="1.1" id="Capa_1" xmlns="http://www.w3.org/2000/svg" xmlns:xlink="http://www.w3.org/1999/xlink" x="0px" y="0px"
	 viewBox="0 0 24 23.7" style="enable-background:new 0 0 24 23.7;" xml:space="preserve">
<style type="text/css">
	.st0{fill:none;stroke:#000000;stroke-width:2;stroke-miterlimit:10;}
</style>
<path class="st0" d="M12.5,2.2L15.3,8c0.1,0.2,0.2,0.3,0.4,0.3l6.4,0.9c0.4,0.1,0.6,0.6,0.3,0.9l-4.6,4.5c-0.1,0.1-0.2,0.3-0.2,0.5
	l1.1,6.4c0.1,0.4-0.4,0.8-0.8,0.6l-5.7-3c-0.2-0.1-0.3-0.1-0.5,0L6,22c-0.4,0.2-0.8-0.1-0.8-0.6l1.1-6.4c0-0.2,0-0.3-0.2-0.5
	l-4.6-4.5C1.3,9.8,1.4,9.2,1.9,9.2l6.4-0.9c0.2,0,0.3-0.1,0.4-0.3l2.9-5.8C11.7,1.8,12.3,1.8,12.5,2.2z"/>
</svg>
