<?xml version="1.0" encoding="utf-8"?>
<!-- Generator: Adobe Illustrator 22.0.1, SVG Export Plug-In . SVG Version: 6.00 Build 0)  -->
<svg version="1.1" id="Capa_1" xmlns="http://www.w3.org/2000/svg" xmlns:xlink="http://www.w3.org/1999/xlink" x="0px" y="0px"
	 viewBox="0 0 24 23.7" style="enable-background:new 0 0 24 23.7;" xml:space="preserve">
<style type="text/css">
	.st0{fill:#FEFEFE;}
	.st1{fill:#010101;}
</style>
<path d="M23.8,4.2c0-0.6,0-1.1,0-1.7c0-0.3,0-0.5-0.1-0.8C23.4,0.6,22.5,0,21.3,0c-3.6,0-7.1,0-10.7,0C8,0,5.3,0,2.7,0
	C1.3,0,0.3,0.9,0.2,2.1c-0.1,0.7,0,1.4,0,2.1c0,0,0,0.1,0,0.1c0,5.7,0,11.3,0,17c0,1.4,1,2.4,2.5,2.4c6.2,0,12.4,0,18.7,0
	c0.3,0,0.6,0,0.8-0.1c1.1-0.4,1.7-1.2,1.7-2.4c0-5.1,0-10.2,0-15.3C23.9,5.3,23.8,4.8,23.8,4.2z M4.7,18.3c-0.5,0.3-1.1,0.2-1.6,0
	c-0.1,0-0.1-0.1-0.1-0.2c0-0.2,0-0.4,0-0.7c0.3,0.3,0.6,0.5,1,0.5c0.2,0,0.4,0,0.5-0.3c0-0.3-0.2-0.3-0.4-0.3
	c-0.1,0-0.3-0.1-0.4-0.1C3.2,17,3,16.7,3,16.3c0-0.4,0.3-0.8,0.8-0.9c0.4-0.1,0.8-0.1,1.1,0.1C5,15.5,5.2,16,5,16.2
	c-0.1,0.1-0.1,0-0.2,0c-0.2-0.2-0.5-0.3-0.8-0.2c-0.2,0-0.4,0.1-0.4,0.3c0,0.2,0.2,0.2,0.3,0.3c0.2,0.1,0.4,0.1,0.7,0.2
	c0.3,0.2,0.5,0.4,0.5,0.8C5.2,17.8,5,18.1,4.7,18.3z M8.1,15.9c-0.6,0-0.6,0-0.6,0.6c0,0.5,0,1.1,0,1.6c0,0.2,0,0.3-0.3,0.3
	c-0.5,0-0.5,0-0.5-0.5c0-0.3,0-0.5,0-0.8c0-0.3,0-0.7,0-1c0-0.2,0-0.2-0.2-0.2c-0.1,0-0.2,0-0.3,0c-0.3,0.1-0.3-0.1-0.3-0.3
	c0-0.2,0-0.3,0.3-0.3c0.6,0,1.2,0,1.9,0c0.3,0,0.2,0.1,0.2,0.3C8.3,15.7,8.3,15.9,8.1,15.9z M11.4,18.4c-0.5,0-1,0-1.5,0
	c-0.2,0-0.2,0-0.2-0.2c0-0.4,0-0.9,0-1.3c0-0.4,0-0.9,0-1.3c0-0.2,0-0.3,0.2-0.3c0.5,0,1,0,1.4,0c0.3,0,0.2,0.2,0.2,0.3
	c0,0.1,0.1,0.3-0.2,0.3c-0.3,0-0.5,0-0.8,0c-0.2,0-0.2,0.1-0.2,0.2c0,0.1-0.1,0.3,0.2,0.3c0.2,0,0.5,0,0.7,0c0.2,0,0.2,0.1,0.2,0.3
	c0,0.1,0.1,0.3-0.2,0.3c-0.2,0-0.4,0-0.7,0c-0.2,0-0.3,0-0.2,0.2c0,0.1,0,0.2,0,0.3c0,0.2,0,0.3,0.3,0.3c0.2,0,0.5,0,0.7,0
	c0.3,0,0.2,0.2,0.2,0.3C11.6,18.2,11.6,18.4,11.4,18.4z M15.1,18.4c-0.3,0-0.4-0.1-0.5-0.4c0-0.2-0.2-0.3-0.4-0.3
	c-0.1,0-0.2,0-0.3,0c-0.2,0-0.3,0-0.3,0.2c0,0.4-0.2,0.5-0.6,0.4c-0.1,0-0.1,0-0.2,0c0.2-0.8,0.4-1.5,0.7-2.2c0-0.2,0.1-0.3,0.1-0.5
	c0-0.3,0.2-0.4,0.5-0.4c0.3,0,0.4,0.1,0.5,0.4c0.3,0.9,0.5,1.8,0.8,2.7C15.3,18.4,15.2,18.4,15.1,18.4z M19.3,18.4
	c-0.5,0-0.5,0-0.5-0.5c0-0.4,0-0.9,0-1.3c0,0,0,0-0.1,0c-0.1,0.3-0.2,0.6-0.3,0.9c-0.1,0.2-0.2,0.2-0.3,0.2c-0.2,0-0.3,0-0.3-0.2
	c-0.1-0.3-0.2-0.6-0.4-0.9c0,0.5,0,1.1,0,1.6c0,0.3-0.2,0.2-0.4,0.2c-0.1,0-0.3,0.1-0.3-0.2c0-0.9,0-1.8,0-2.7
	c0-0.2,0.1-0.2,0.2-0.2c0.6,0,0.6,0,0.8,0.5c0.1,0.3,0.2,0.6,0.4,1c0.2-0.5,0.4-0.9,0.5-1.3c0.1-0.2,0.8-0.3,0.9-0.2
	c0,0,0,0.1,0,0.2c0,0.9,0,1.8,0,2.7C19.5,18.3,19.5,18.4,19.3,18.4z M17.8,10.2c-0.2,0-0.4,0.1-0.5,0.2c-0.6,0.4-1.1,0.8-1.7,1.3
	c-0.2,0.1-0.2,0.2-0.3,0.4c-0.1,0.8-0.8,1.4-1.5,1.5c-0.9,0.1-1.6-0.4-1.9-1.2c-0.1-0.2-0.2-0.4-0.4-0.5c-2-0.8-3.9-1.7-5.9-2.5
	C5.4,9.4,5.2,9.4,5,9.5C4.4,9.8,3.5,9.6,3,9C2.4,8.4,2.4,7.5,2.8,6.8c0.5-0.7,1.3-1,2.1-0.7C5.4,6.4,5.8,6.7,6,7.3
	C6,7.4,6.1,7.5,6.3,7.6c2,0.9,4.1,1.7,6.1,2.6c0.1,0.1,0.2,0.1,0.4,0c0.1-0.1,0.2-0.1,0.3-0.1c0.4,0,0.7-0.3,0.9-0.6
	c0.2-0.3,0.5-0.6,0.7-1c0.3-0.4,0.5-0.7,0.6-1.2c0.2-1.1,1.3-1.8,2.5-1.8c1.1,0.1,2,1,2.1,2.2c0,0.1,0,0.2,0,0.3
	C19.8,9.1,19,10,17.8,10.2z M20.7,15.4c-0.3,0.1-0.2,0.4-0.2,0.6c0,0.1,0,0.2-0.1,0.2c-0.1,0-0.1-0.1-0.1-0.2
	c-0.1-0.2,0.2-0.4-0.2-0.5c-0.1,0,0-0.1,0.1-0.1c0.1,0,0.2,0,0.2,0c0,0,0,0,0,0c0.1,0,0.2,0,0.2,0C20.7,15.3,20.8,15.4,20.7,15.4z
	 M21.6,15.9c0,0.1,0.1,0.2-0.1,0.3c-0.2,0-0.1-0.1-0.1-0.2c0-0.1-0.1-0.1-0.1,0c-0.1,0.1-0.2,0-0.2-0.1c0,0.1,0,0.1,0,0.1
	c0,0.1,0,0.2-0.1,0.2c-0.1,0-0.1-0.1-0.1-0.2c0-0.1,0-0.3,0-0.4c0-0.1-0.1-0.2,0.1-0.2c0.1,0,0.2,0.1,0.2,0.2c0,0,0,0.1,0.1,0.1
	c0,0,0,0,0.1,0c0.1-0.1,0.1-0.3,0.3-0.3c0.2,0.1,0.1,0.2,0.1,0.4C21.6,15.7,21.6,15.8,21.6,15.9z"/>
<path class="st0" d="M19.8,7.9c-0.1,1.2-0.9,2.1-2.1,2.2c-0.2,0-0.4,0.1-0.5,0.2c-0.6,0.4-1.1,0.8-1.7,1.3c-0.2,0.1-0.2,0.2-0.3,0.4
	c-0.1,0.8-0.8,1.4-1.5,1.5c-0.9,0.1-1.6-0.4-1.9-1.2c-0.1-0.2-0.2-0.4-0.4-0.5c-2-0.8-3.9-1.7-5.9-2.5C5.4,9.4,5.2,9.4,5,9.5
	C4.4,9.8,3.5,9.6,3,9C2.4,8.4,2.4,7.5,2.8,6.8c0.5-0.7,1.3-1,2.1-0.7C5.4,6.4,5.8,6.7,6,7.3C6,7.4,6.1,7.5,6.3,7.6
	c2,0.9,4.1,1.7,6.1,2.6c0.1,0.1,0.2,0.1,0.4,0c0.1-0.1,0.2-0.1,0.3-0.1c0.4,0,0.7-0.3,0.9-0.6c0.2-0.3,0.5-0.6,0.7-1
	c0.3-0.4,0.5-0.7,0.6-1.2c0.2-1.1,1.3-1.8,2.5-1.8c1.1,0.1,2,1,2.1,2.2C19.8,7.8,19.8,7.8,19.8,7.9z M17.5,9.5
	c0.9,0,1.7-0.7,1.6-1.6c0-0.9-0.7-1.6-1.6-1.6c-0.9,0-1.6,0.7-1.6,1.6C15.9,8.7,16.6,9.5,17.5,9.5z M13.6,13.2
	c0.7,0,1.4-0.6,1.4-1.4c0-0.8-0.6-1.4-1.4-1.4c-0.2,0-0.5,0-0.5,0.2c0,0.3,0.3,0.2,0.4,0.2c0,0,0,0,0,0c0.4,0,0.8,0.3,0.9,0.7
	c0.1,0.4,0,0.8-0.3,1.1c-0.4,0.3-0.9,0.3-1.4-0.1c-0.1-0.1-0.2-0.2-0.4-0.1c-0.1,0.1,0,0.2,0.1,0.3C12.8,13.1,13.2,13.2,13.6,13.2z
	 M4.3,6.4c-0.7,0-1.4,0.6-1.4,1.4c0,0.7,0.5,1.4,1.2,1.4c0.2,0,0.5,0.1,0.5-0.1c0-0.3-0.3-0.2-0.4-0.2C3.4,8.8,3,7.9,3.4,7.3
	c0.4-0.6,1.1-0.6,1.7-0.1c0.1,0.1,0.2,0.3,0.4,0.1c0.1-0.2,0-0.3-0.1-0.4C5,6.6,4.7,6.4,4.3,6.4z"/>
<path class="st0" d="M18.7,16.6c-0.1,0.3-0.2,0.6-0.3,0.9c-0.1,0.2-0.2,0.2-0.3,0.2c-0.2,0-0.3,0-0.3-0.2c-0.1-0.3-0.2-0.6-0.4-0.9
	c0,0.5,0,1.1,0,1.6c0,0.3-0.2,0.2-0.4,0.2c-0.1,0-0.3,0.1-0.3-0.2c0-0.9,0-1.8,0-2.7c0-0.2,0.1-0.2,0.2-0.2c0.6,0,0.6,0,0.8,0.5
	c0.1,0.3,0.2,0.6,0.4,1c0.2-0.5,0.4-0.9,0.5-1.3c0.1-0.2,0.8-0.3,0.9-0.2c0,0,0,0.1,0,0.2c0,0.9,0,1.8,0,2.7c0,0.2-0.1,0.2-0.2,0.2
	c-0.5,0-0.5,0-0.5-0.5C18.8,17.5,18.8,17,18.7,16.6C18.8,16.6,18.8,16.6,18.7,16.6z"/>
<path class="st0" d="M2.9,17.5c0.3,0.3,0.6,0.5,1,0.5c0.2,0,0.4,0,0.5-0.3c0-0.3-0.2-0.3-0.4-0.3c-0.1,0-0.3-0.1-0.4-0.1
	C3.2,17,3,16.7,3,16.3c0-0.4,0.3-0.8,0.8-0.9c0.4-0.1,0.8-0.1,1.1,0.1C5,15.5,5.2,16,5,16.2c-0.1,0.1-0.1,0-0.2,0
	c-0.2-0.2-0.5-0.3-0.8-0.2c-0.2,0-0.4,0.1-0.4,0.3c0,0.2,0.2,0.2,0.3,0.3c0.2,0.1,0.4,0.1,0.7,0.2c0.3,0.2,0.5,0.4,0.5,0.8
	c0,0.4-0.1,0.7-0.5,0.9c-0.5,0.3-1.1,0.2-1.6,0c-0.1,0-0.1-0.1-0.1-0.2C2.9,17.9,2.9,17.7,2.9,17.5z"/>
<path class="st0" d="M15.5,18.4c-0.2,0-0.3,0-0.4,0c-0.3,0-0.4-0.1-0.5-0.4c0-0.2-0.2-0.3-0.4-0.3c-0.1,0-0.2,0-0.3,0
	c-0.2,0-0.3,0-0.3,0.2c0,0.4-0.2,0.5-0.6,0.4c-0.1,0-0.1,0-0.2,0c0.2-0.8,0.4-1.5,0.7-2.2c0-0.2,0.1-0.3,0.1-0.5
	c0-0.3,0.2-0.4,0.5-0.4c0.3,0,0.4,0.1,0.5,0.4C14.9,16.6,15.2,17.4,15.5,18.4z M14.2,16.3C14.1,16.3,14.1,16.3,14.2,16.3
	c-0.1,0.3-0.2,0.5-0.3,0.8c0.2,0,0.3,0,0.5,0C14.3,16.9,14.2,16.6,14.2,16.3z"/>
<path class="st0" d="M9.7,16.8c0-0.4,0-0.9,0-1.3c0-0.2,0-0.3,0.2-0.3c0.5,0,1,0,1.4,0c0.3,0,0.2,0.2,0.2,0.3c0,0.1,0.1,0.3-0.2,0.3
	c-0.3,0-0.5,0-0.8,0c-0.2,0-0.2,0.1-0.2,0.2c0,0.1-0.1,0.3,0.2,0.3c0.2,0,0.5,0,0.7,0c0.2,0,0.2,0.1,0.2,0.3c0,0.1,0.1,0.3-0.2,0.3
	c-0.2,0-0.4,0-0.7,0c-0.2,0-0.3,0-0.2,0.2c0,0.1,0,0.2,0,0.3c0,0.2,0,0.3,0.3,0.3c0.2,0,0.5,0,0.7,0c0.3,0,0.2,0.2,0.2,0.3
	c0,0.1,0.1,0.3-0.2,0.3c-0.5,0-1,0-1.5,0c-0.2,0-0.2,0-0.2-0.2C9.7,17.7,9.7,17.3,9.7,16.8z"/>
<path class="st0" d="M6.8,17.1c0-0.3,0-0.7,0-1c0-0.2,0-0.2-0.2-0.2c-0.1,0-0.2,0-0.3,0c-0.3,0.1-0.3-0.1-0.3-0.3
	c0-0.2,0-0.3,0.3-0.3c0.6,0,1.2,0,1.9,0c0.3,0,0.2,0.1,0.2,0.3c0,0.2,0,0.3-0.2,0.3c-0.6,0-0.6,0-0.6,0.6c0,0.5,0,1.1,0,1.6
	c0,0.2,0,0.3-0.3,0.3c-0.5,0-0.5,0-0.5-0.5C6.8,17.7,6.8,17.4,6.8,17.1z"/>
<path class="st1" d="M17.5,9.5c-0.9,0-1.6-0.7-1.6-1.6c0-0.9,0.7-1.6,1.6-1.6c0.9,0,1.6,0.7,1.6,1.6C19.1,8.7,18.4,9.5,17.5,9.5z
	 M16.3,7.8c0,0.6,0.5,1.2,1.1,1.2c0.7,0,1.2-0.5,1.2-1.2c0-0.7-0.6-1.2-1.2-1.2C16.8,6.7,16.3,7.2,16.3,7.8z"/>
<path class="st1" d="M13.6,13.2c-0.4,0-0.7-0.1-1-0.4c-0.1-0.1-0.2-0.2-0.1-0.3c0.1-0.2,0.3,0,0.4,0.1c0.5,0.4,1,0.4,1.4,0.1
	c0.3-0.3,0.5-0.7,0.3-1.1c-0.1-0.4-0.5-0.6-0.9-0.7c0,0,0,0,0,0c-0.2,0-0.4,0.1-0.4-0.2c0-0.3,0.3-0.2,0.5-0.2
	c0.8,0,1.4,0.7,1.4,1.4C15,12.6,14.3,13.2,13.6,13.2z"/>
<path class="st1" d="M4.3,6.4c0.4,0,0.8,0.1,1,0.4C5.4,7,5.6,7.1,5.4,7.2c-0.2,0.2-0.3,0-0.4-0.1C4.5,6.6,3.8,6.7,3.4,7.3
	C3,7.9,3.4,8.8,4.2,8.9c0.2,0,0.5-0.1,0.4,0.2c0,0.3-0.3,0.2-0.5,0.1C3.4,9.2,2.9,8.5,2.9,7.8C2.9,7.1,3.5,6.4,4.3,6.4z"/>
<path class="st1" d="M14.2,16.3c0.1,0.3,0.2,0.5,0.2,0.8c-0.2,0-0.3,0-0.5,0C13.9,16.9,14,16.6,14.2,16.3
	C14.1,16.3,14.1,16.3,14.2,16.3z"/>
<path class="st0" d="M16.3,7.8c0-0.6,0.5-1.2,1.1-1.2c0.7,0,1.2,0.5,1.2,1.2c0,0.7-0.5,1.2-1.2,1.2C16.8,9,16.3,8.5,16.3,7.8z"/>
</svg>
