<?xml version="1.0" encoding="utf-8"?>
<!-- Generator: Adobe Illustrator 22.0.1, SVG Export Plug-In . SVG Version: 6.00 Build 0)  -->
<svg version="1.1" id="Capa_1" xmlns="http://www.w3.org/2000/svg" xmlns:xlink="http://www.w3.org/1999/xlink" x="0px" y="0px"
	 viewBox="0 0 24 23.7" style="enable-background:new 0 0 24 23.7;" xml:space="preserve">
<style type="text/css">
	.st0{fill:#FFFFFF;}
</style>
<rect y="0" class="st0" width="24" height="23.7"/>
<path d="M0.4,15.1c0.9,0.4,1.7,0.7,2.6,1c0.6,0.2,1.2,0.5,1.8,0.7C5,17,5,17,5.1,17.2c0.5,1.6,1.9,2.6,3.6,2.5
	c1.5-0.1,2.8-1.3,3.1-2.9c0,0,0-0.1,0-0.1c-0.1-0.4,0.2-0.7,0.5-0.9c1.1-0.8,2.2-1.6,3.4-2.4c0.1-0.1,0.3-0.2,0.5-0.2
	c2.4-0.1,4.3-1.9,4.4-4.3c0.1-2.2-1.5-4.2-3.6-4.6c-2.6-0.5-4.9,1.1-5.4,3.7c0,0,0,0.1,0,0.1c0.1,0.5-0.2,0.9-0.5,1.3
	c-0.8,1.1-1.5,2.1-2.3,3.2C8.6,12.9,8.5,13,8.3,13c-0.6,0-1.2,0.2-1.7,0.5c-0.1,0-0.2,0.1-0.3,0c-2.1-0.8-4.2-1.7-6.3-2.6
	c0,0,0,0-0.1,0c0.1-1,0.3-2,0.6-3c1.7-4.4,4.9-7,9.5-7.8c5.4-0.9,10.6,2,12.8,6.9c2.9,6.5-0.6,14.1-7.5,16.2
	c-6.2,1.8-12.7-1.4-14.9-7.4C0.6,15.6,0.5,15.4,0.4,15.1z"/>
<path d="M15.9,5.8c1.7,0,3,1.3,3,3c0,1.6-1.4,3-3,3c-1.7,0-3-1.3-3-3C12.9,7.2,14.3,5.8,15.9,5.8z M15.9,11c1.3,0,2.3-1,2.3-2.2
	c0-1.2-1-2.2-2.3-2.2c-1.2,0-2.3,1-2.3,2.2C13.7,10,14.7,11.1,15.9,11z"/>
<path d="M7.5,14c1.3-0.5,2.7,0.2,3.2,1.4c0.5,1.3-0.1,2.7-1.4,3.2c-1.2,0.5-2.7,0-3.3-1.2c0.4,0.2,0.8,0.3,1.1,0.5
	c0.5,0.2,0.9,0.3,1.4,0.2c0.8-0.2,1.4-0.8,1.5-1.6c0.1-0.8-0.3-1.6-1.1-1.9C8.5,14.4,8,14.2,7.5,14z"/>
</svg>
