<?xml version="1.0" encoding="utf-8"?>
<!-- Generator: Adobe Illustrator 22.0.1, SVG Export Plug-In . SVG Version: 6.00 Build 0)  -->
<svg version="1.1" id="Capa_1" xmlns="http://www.w3.org/2000/svg" xmlns:xlink="http://www.w3.org/1999/xlink" x="0px" y="0px"
	 viewBox="0 0 24 23.7" style="enable-background:new 0 0 24 23.7;" xml:space="preserve">
<g>
	<path d="M6.3,23.7c0-1,0-1.9,0-2.8c-0.1,0-0.2,0-0.3,0c-1.7,0-3.4,0-5.1,0c-0.2,0-0.3-0.1-0.3-0.3c0-5.3,0-10.7,0-16
		c0-0.1,0-0.3,0.1-0.4C1,2.8,1.5,1.5,1.9,0.3C1.9,0.1,2,0,2.2,0c7,0,14,0,21,0c0.1,0,0.1,0,0.2,0c0,0.1,0,0.2,0,0.3
		c0,4.6,0,9.2,0,13.8c0,0.2-0.1,0.3-0.2,0.5c-2,2-4,4-6.1,6.1c-0.1,0.1-0.3,0.2-0.5,0.2c-1.3,0-2.5,0-3.8,0c-0.2,0-0.3,0.1-0.4,0.2
		c-0.8,0.8-1.7,1.7-2.5,2.5c-0.1,0.1-0.3,0.2-0.5,0.2c-1,0-2,0-3,0C6.5,23.7,6.4,23.7,6.3,23.7z M9.1,20.1c0,0,0.1,0.1,0.1,0.1
		c0-0.1,0.1-0.2,0.1-0.3c0.8-0.8,1.6-1.6,2.4-2.4c0.2-0.2,0.4-0.3,0.7-0.3c1.7,0,3.4,0,5.1,0c0.1,0,0.3-0.1,0.4-0.2
		c1.1-1.1,2.2-2.2,3.3-3.3c0.1-0.1,0.2-0.3,0.2-0.4c0-3.7,0-7.3,0-11c0-0.3-0.1-0.3-0.3-0.3c-5.6,0-11.1,0-16.7,0
		c-0.3,0-0.3,0.1-0.3,0.3c0,4.8,0,9.7,0,14.5c0,0.3,0.1,0.3,0.3,0.3c1.5,0,2.9,0,4.4,0c0.1,0,0.2,0,0.3,0
		C9.1,18.2,9.1,19.1,9.1,20.1z"/>
	<path d="M12,12.9c-0.7,0-1.4,0-2.1,0c0-2.1,0-4.2,0-6.4c0.7,0,1.4,0,2.1,0C12,8.6,12,10.8,12,12.9z"/>
	<path d="M17.7,12.9c-0.7,0-1.4,0-2.1,0c0-2.1,0-4.2,0-6.4c0.7,0,1.4,0,2.1,0C17.7,8.6,17.7,10.7,17.7,12.9z"/>
</g>
</svg>
