<?xml version="1.0" encoding="utf-8"?>
<!-- Generator: Adobe Illustrator 22.0.1, SVG Export Plug-In . SVG Version: 6.00 Build 0)  -->
<svg version="1.1" id="Capa_1" xmlns="http://www.w3.org/2000/svg" xmlns:xlink="http://www.w3.org/1999/xlink" x="0px" y="0px"
	 viewBox="0 0 24 23.7" style="enable-background:new 0 0 24 23.7;" xml:space="preserve">
<style type="text/css">
	.st0{fill:#FFFFFF;}
</style>
<path d="M0.1,23.7c0-7.9,0-15.8,0-23.7C8,0,15.9,0,23.9,0c0,7.9,0,15.8,0,23.7C16,23.7,8.1,23.7,0.1,23.7z M6.9,22.5
	c0.1,0,0.2,0,0.3,0c0.9,0,1.8,0,2.7,0c0.2,0,0.3-0.1,0.4-0.2c0.7-0.8,1.5-1.5,2.2-2.2c0.1-0.1,0.2-0.2,0.4-0.2c1.1,0,2.3,0,3.4,0
	c0.2,0,0.3-0.1,0.5-0.2c1.8-1.8,3.6-3.6,5.5-5.5c0.1-0.1,0.2-0.3,0.2-0.4c0-4.1,0-8.3,0-12.4c0-0.1,0-0.2,0-0.3c-0.1,0-0.2,0-0.2,0
	c-6.3,0-12.6,0-18.9,0C3,1.2,3,1.3,2.9,1.4C2.5,2.6,2.1,3.7,1.8,4.9c0,0.1-0.1,0.3-0.1,0.4c0,4.8,0,9.6,0,14.4
	c0,0.2,0.1,0.3,0.3,0.3c1.5,0,3.1,0,4.6,0c0.1,0,0.2,0,0.3,0C6.9,20.8,6.9,21.7,6.9,22.5z"/>
<path class="st0" d="M6.9,22.5c0-0.9,0-1.7,0-2.6c-0.1,0-0.2,0-0.3,0c-1.5,0-3.1,0-4.6,0c-0.2,0-0.3-0.1-0.3-0.3c0-4.8,0-9.6,0-14.4
	c0-0.1,0-0.3,0.1-0.4c0.4-1.2,0.8-2.3,1.1-3.4C3,1.3,3,1.2,3.2,1.2c6.3,0,12.6,0,18.9,0c0.1,0,0.1,0,0.2,0c0,0.1,0,0.2,0,0.3
	c0,4.1,0,8.3,0,12.4c0,0.2-0.1,0.3-0.2,0.4c-1.8,1.8-3.6,3.6-5.5,5.5c-0.1,0.1-0.3,0.2-0.5,0.2c-1.1,0-2.3,0-3.4,0
	c-0.2,0-0.3,0-0.4,0.2c-0.7,0.8-1.5,1.5-2.2,2.2c-0.1,0.1-0.2,0.2-0.4,0.2c-0.9,0-1.8,0-2.7,0C7.1,22.5,7,22.5,6.9,22.5z M9.4,19.3
	c0,0,0.1,0.1,0.1,0.1c0-0.1,0.1-0.2,0.1-0.2c0.7-0.7,1.4-1.4,2.1-2.1c0.2-0.2,0.4-0.3,0.6-0.3c1.5,0,3.1,0,4.6,0
	c0.1,0,0.3-0.1,0.4-0.1c1-1,2-2,2.9-2.9c0.1-0.1,0.1-0.2,0.1-0.4c0-3.3,0-6.6,0-9.9c0-0.2-0.1-0.3-0.3-0.3c-5,0-10,0-15,0
	c-0.2,0-0.3,0.1-0.3,0.3c0,4.4,0,8.7,0,13.1c0,0.3,0.1,0.3,0.3,0.3c1.3,0,2.6,0,3.9,0c0.1,0,0.2,0,0.3,0C9.4,17.6,9.4,18.4,9.4,19.3
	z"/>
<path d="M9.4,19.3c0-0.8,0-1.7,0-2.5c-0.1,0-0.2,0-0.3,0c-1.3,0-2.6,0-3.9,0c-0.2,0-0.3,0-0.3-0.3c0-4.4,0-8.7,0-13.1
	c0-0.2,0.1-0.3,0.3-0.3c5,0,10,0,15,0c0.2,0,0.3,0.1,0.3,0.3c0,3.3,0,6.6,0,9.9c0,0.1-0.1,0.3-0.1,0.4c-1,1-2,2-2.9,2.9
	c-0.1,0.1-0.2,0.1-0.4,0.1c-1.5,0-3.1,0-4.6,0c-0.3,0-0.4,0.1-0.6,0.3c-0.7,0.7-1.4,1.4-2.1,2.1c-0.1,0.1-0.1,0.2-0.1,0.2
	C9.5,19.3,9.5,19.3,9.4,19.3z M12,12.8c0-1.9,0-3.8,0-5.7c-0.6,0-1.3,0-1.9,0c0,1.9,0,3.8,0,5.7C10.7,12.8,11.4,12.8,12,12.8z
	 M17.2,12.8c0-1.9,0-3.8,0-5.7c-0.6,0-1.2,0-1.9,0c0,1.9,0,3.8,0,5.7C15.9,12.8,16.5,12.8,17.2,12.8z"/>
<path class="st0" d="M12,12.8c-0.6,0-1.2,0-1.9,0c0-1.9,0-3.8,0-5.7c0.6,0,1.2,0,1.9,0C12,9,12,10.9,12,12.8z"/>
<path class="st0" d="M17.2,12.8c-0.6,0-1.2,0-1.9,0c0-1.9,0-3.8,0-5.7c0.6,0,1.2,0,1.9,0C17.2,9,17.2,10.9,17.2,12.8z"/>
</svg>
