<?xml version="1.0" encoding="utf-8"?>
<!-- Generator: Adobe Illustrator 22.0.1, SVG Export Plug-In . SVG Version: 6.00 Build 0)  -->
<svg version="1.1" id="Capa_1" xmlns="http://www.w3.org/2000/svg" xmlns:xlink="http://www.w3.org/1999/xlink" x="0px" y="0px"
	 viewBox="0 0 24 23.7" style="enable-background:new 0 0 24 23.7;" xml:space="preserve">
<style type="text/css">
	.st0{fill:none;stroke:#000000;stroke-width:2;stroke-linecap:round;stroke-miterlimit:10;}
	.st1{stroke:#FFFFFF;stroke-width:0.8287;stroke-linecap:round;stroke-miterlimit:10;}
</style>
<g>
	<path class="st0" d="M15.6,16.4c-2-2-5.2-2-7.2,0"/>
	<path class="st0" d="M19.2,13.2c-4-4-10.4-3.9-14.4,0"/>
	<path class="st0" d="M22.8,9.9C16.8,4,7.2,4,1.2,10"/>
</g>
<circle cx="12" cy="19.7" r="2.2"/>
<path class="st1" d="M20.2,21.5L1,4C0.4,3.5,0.4,2.6,0.9,2l0,0c0.5-0.6,1.4-0.6,2-0.1L22,19.4c0.6,0.5,0.6,1.4,0.1,2l0,0
	C21.6,22,20.7,22,20.2,21.5z"/>
</svg>
