<?xml version="1.0" encoding="utf-8"?>
<!-- Generator: Adobe Illustrator 22.0.1, SVG Export Plug-In . SVG Version: 6.00 Build 0)  -->
<svg version="1.1" id="Capa_1" xmlns="http://www.w3.org/2000/svg" xmlns:xlink="http://www.w3.org/1999/xlink" x="0px" y="0px"
	 viewBox="0 0 24 23.7" style="enable-background:new 0 0 24 23.7;" xml:space="preserve">
<path d="M11.9,20.2c-1.7,0-3.4-0.1-5.1-0.1c-1.2,0-2.3-0.1-3.4-0.3c-0.8-0.1-1.4-0.3-2-0.9c-0.5-0.4-0.7-1-0.9-1.6
	c-0.2-0.8-0.3-1.7-0.3-2.5c-0.1-1.2-0.1-2.3-0.1-3.5c0-1.3,0.1-2.5,0.2-3.8c0.1-0.4,0.1-0.9,0.2-1.3C0.8,5,1.8,4.1,3.1,3.9
	C4,3.8,4.9,3.7,5.7,3.7c2.1-0.1,4.1-0.2,6.2-0.2c1.4,0,2.7,0,4.1,0.1c1.3,0,2.6,0.1,3.9,0.2c0.5,0,1,0.1,1.5,0.2
	c1.1,0.3,1.8,1,2.1,2.1c0.2,0.6,0.2,1.2,0.3,1.8c0.1,1.5,0.2,2.9,0.2,4.4c0,1.4-0.1,2.9-0.3,4.3c-0.1,0.5-0.2,1-0.4,1.5
	c-0.4,0.9-1.2,1.5-2.1,1.6c-0.7,0.1-1.4,0.2-2.1,0.2c-2.3,0.2-4.6,0.2-6.9,0.2C12,20.2,11.9,20.2,11.9,20.2
	C11.9,20.2,11.9,20.2,11.9,20.2z M9.6,8.3c0,2.4,0,4.8,0,7.1c2.1-1.2,4.1-2.4,6.2-3.6C13.8,10.6,11.7,9.5,9.6,8.3z"/>
</svg>
