<svg xmlns="http://www.w3.org/2000/svg" viewBox="0 0 24 24"><path d="M3 6h14c1.1 0 2 .9 2 2v8c0 1.1-.9 2-2 2H3c-1.1 0-2-.9-2-2V8c0-1.1.9-2 2-2zm20 7v-2" fill="none" stroke="#000" stroke-width="2" stroke-linecap="round" stroke-linejoin="round"/><path d="M4.8 16c-1.2 0-2.1-.9-2.1-2.1v-3.8c0-1.2.9-2.1 2.1-2.1 1.2 0 2.1.9 2.1 2.1v3.8c0 1.2-.9 2.1-2.1 2.1zm5.2 0c-1.2 0-2.1-.9-2.1-2.1v-3.8C7.9 8.9 8.8 8 10 8c1.2 0 2.1.9 2.1 2.1v3.8c0 1.2-.9 2.1-2.1 2.1zm5.2 0c-1.2 0-2.1-.9-2.1-2.1v-3.8c0-1.2.9-2.1 2.1-2.1 1.2 0 2.1.9 2.1 2.1v3.8c0 1.2-1 2.1-2.1 2.1z"/></svg>