<svg xmlns="http://www.w3.org/2000/svg" viewBox="0 0 24 23.7"><path d="M9.2 20.2c-.9.1-1-.3-.8-1 1.7-5 3.3-9.9 5-14.9.2-.6.3-.7.9-.7h.5c.5 0 .7.3.5.7-.3 1.2-.7 2.4-1.1 3.7-1.3 3.8-2.5 7.6-3.8 11.4-.3.7-.4.8-1.2.8zm12.6-8.3c-1.1-1.4-2.2-2.7-3.3-4-.4-.5-.4-.7.1-1.2.7-.6.9-.4 1.4.1 1.3 1.5 2.5 3 3.8 4.6.3.3.3.6 0 .9-1.3 1.6-2.7 3.2-4 4.8-.4.4-.6.5-1 .1-.1-.1-.3-.2-.4-.3-.3-.3-.3-.5-.1-.8 1-1.2 2-2.5 3.1-3.7.1-.2.2-.4.4-.5zm-19.7 0c.8 1 1.6 1.9 2.4 2.8.4.4.8.9 1.1 1.3.2.3.2.6-.1.9l-.3.3c-.5.4-.7.4-1.1-.1C3 15.8 1.8 14.4.7 13c-.2-.3-.4-.5-.6-.8-.2-.3-.2-.5 0-.8 1.4-1.6 2.7-3.3 4.1-4.9.3-.3.6-.4.9 0l.3.3c.3.3.4.5.1.9-.7.9-1.5 1.8-2.2 2.8-.4.4-.8.9-1.2 1.4z"/></svg>