<svg xmlns="http://www.w3.org/2000/svg" viewBox="0 0 24 23.7"><path d="M.2 11.8v-9c0-1.4.8-2.4 2-2.7.2-.1.5-.1.8-.1h18c1.7 0 2.8 1.1 2.8 2.8v18c0 1.7-1.1 2.8-2.8 2.8H3c-1.7 0-2.8-1.1-2.8-2.9-.1-2.9 0-5.9 0-8.9zm12-9.2H7.8c-.3 0-.4.1-.4.4v1.2c0 .3-.1.4-.4.4H3.7c-.2 0-.3 0-.3.3.1.8.2 1.6.3 2.5.1.8.3 1.5.2 2.3.1.5.1 1.1.1 1.6-.2 2.5-.3 4.9-.5 7.4 0 .3.1.3.3.2 1.1-.3 2.1-.6 3.2-1 .5-.1.5-.1.5.3v2.7c0 .2 0 .3.3.3 1.8-.4 3.6-.7 5.4-1.1.2 0 .3-.2.3-.4v-2.2c0-.3 0-.4.3-.3.9.1 1.8.1 2.7.2l3.9.3c.3 0 .3-.1.3-.3-.1-.6-.1-1.1-.1-1.7-.2-2.3-.3-4.7-.5-7v-.4l.6-3.3c.1-.3 0-.4-.4-.4H17c-.2 0-.3 0-.2-.3.1-.4.2-.9.3-1.4.1-.3 0-.3-.3-.3h-4.6z"/><path d="M12.2 2.5h4.4c.3 0 .3 0 .3.3-.1.4-.2.9-.3 1.4-.1.3 0 .3.2.3h3.3c.3 0 .4.1.4.4l-.6 3.3v.4c.2 2.3.3 4.7.5 7 0 .6.1 1.1.1 1.7 0 .3 0 .3-.3.3l-3.9-.3c-.9-.1-1.8-.1-2.7-.2-.3 0-.3.1-.3.3v2.2c0 .2 0 .3-.3.4-1.8.3-3.6.7-5.4 1.1-.3.1-.3-.1-.3-.3v-2.7c0-.5 0-.5-.5-.3-1.1.3-2.1.6-3.2 1-.2.1-.3.1-.3-.2.2-2.5.3-4.9.5-7.4 0-.5.1-1.1.1-1.6.3-.8 0-1.6-.1-2.4 0-.8-.2-1.6-.3-2.4 0-.2 0-.3.3-.3h3.3c.3 0 .4-.1.4-.4V2.9c0-.3.1-.4.4-.4h4.3zm-3.5 9.2v7.5c0 .3.1.4.4.3.8-.2 1.7-.4 2.5-.5.4 0 .4-.2.4-.5v-5.1c0-.3.1-.4.4-.4h2c.2 0 .3-.1.3-.3V10c0-.3-.1-.3-.3-.3h-2c-.2 0-.3-.1-.3-.3v-2c0-.2.1-.3.3-.3h2c.2 0 .3-.1.4-.3.2-.9.3-1.8.5-2.6.1-.3 0-.4-.3-.4H9.1c-.3 0-.4.1-.4.4v7.5z" fill="#fdfcfd"/><path d="M8.7 11.9V4.3c0-.3.1-.3.4-.3H15c.3 0 .4.1.3.4-.2.9-.4 1.8-.5 2.6 0 .2-.1.3-.4.3h-2c-.3 0-.3.1-.3.3v2c0 .2.1.3.3.3h2c.2 0 .3 0 .3.3v2.7c0 .2-.1.3-.3.3h-2c-.3 0-.4.1-.4.4v5.1c0 .3-.1.5-.4.5-.9.1-1.7.3-2.5.5-.3.1-.4 0-.4-.3v-7.5z"/></svg>