<svg xmlns="http://www.w3.org/2000/svg" viewBox="0 0 24 23.7"><path d="M15.4 1.5H21c2.5 0 3.6 2.6 2.9 4.3-1.4 3.2-2.6 6.4-3.9 9.5-1.7 4.1-4.7 6.5-9.2 6.8-3.5.3-6.5-1.1-8.6-3.9-4-5-2.6-12.1 3-15.3 1.5-.9 3.3-1.4 5.1-1.4h5.1zm3.2 10.4c0-4.6-3.8-8.4-8.4-8.3-4.6 0-8.3 3.7-8.3 8.3 0 4.6 3.8 8.4 8.4 8.4 4.6 0 8.3-3.8 8.3-8.4z"/><path d="M18.6 11.9c0 4.6-3.7 8.4-8.3 8.4-4.6 0-8.4-3.8-8.4-8.4 0-4.6 3.7-8.3 8.3-8.3 4.6-.1 8.4 3.7 8.4 8.3zm-8.4.5c0 .1.1.2.1.2.6 1.5 1.2 3.1 1.8 4.6.1.3.3.4.6.3.7-.2 1.4-.5 2.2-.7 1-.3 1-.3.7-1.4-.3-.9-.3-1-1.2-.6-.4.2-.6 0-.7-.4-1-2.7-2.1-5.3-3.1-8-.1-.3-.3-.4-.6-.4H8.4C7.3 6 7.3 6 7.3 7.1c0 .9 0 .9.9.9.2 0 .6-.2.7.2-.1.6.4 1 .1 1.6-1.4 2.3-2.7 4.6-4.1 6.9-.1.1-.2.3-.2.5h2c.3 0 .5-.1.6-.4.8-1.4 1.7-2.7 2.5-4.1.1 0 .2-.2.4-.3z" fill="#fff"/><path d="M10.2 12.4c-.2.1-.2.2-.3.4-.8 1.4-1.7 2.7-2.5 4.1-.2.3-.3.4-.6.4h-2c0-.2.1-.4.2-.5 1.3-2.3 2.7-4.6 4.1-6.9.4-.6-.1-1-.3-1.5-.2-.4-.5-.3-.8-.3-.9 0-.9 0-.9-.9 0-1.1 0-1.1 1.1-1.1h1.6c.3 0 .5.1.6.4 1 2.7 2.1 5.3 3.1 8 .2.4.3.5.7.4.9-.4.9-.3 1.2.6.3 1 .3 1-.7 1.4-.7.2-1.4.4-2.2.7-.3.1-.5.1-.6-.3-.6-1.6-1.2-3.1-1.8-4.6.2-.1.1-.2.1-.3z"/></svg>