<svg xmlns="http://www.w3.org/2000/svg" viewBox="0 0 24 23.7"><path d="M0 12.1c0-2.3.6-4.2 1.7-5.9 1.2-1.7 2.7-3 4.7-3.8.8-.3 1.6-.6 2.5-.7.4 0 .7-.1 1.1-.1h10.8c.6 0 1.1.1 1.7.4 1 .6 1.5 1.5 1.6 2.7 0 .3-.1.5-.2.8l-3.6 9c-.3.7-.5 1.4-.9 2.1-.9 1.7-2.1 3-3.7 4-.9.5-1.8.9-2.7 1.2-1.3.3-2.6.5-3.9.2-.7-.1-1.3-.2-1.9-.4-1.1-.4-2.1-1-3-1.7-.9-.7-1.6-1.5-2.2-2.5-.9-1.3-1.3-2.8-1.6-4.3-.4-.4-.4-.8-.4-1zm10.2-8.5c-4.4 0-8.4 3.7-8.2 8.7.2 4.3 3.7 7.9 8.2 7.9 4.6 0 8.3-3.8 8.3-8.4-.1-4.6-3.9-8.2-8.3-8.2zm9.5 3.1c.1-.2.2-.3.3-.4.5-.6.9-1.1 1.3-1.8.3-.5.1-1.2-.3-1.5-.5-.3-1.4-.2-1.8.2-.1.1-.2.4-.2.6V4c.2.1.7 0 .7-.2.1-.3.3-.5.6-.4.3 0 .4.3.4.6 0 .2 0 .4-.1.5-.2.2-.4.5-.6.7-.3.4-.6.9-1 1.3-.2.2-.2.5-.1.7.1.2.3.1.4.1h1.8c.3 0 .2-.1.2-.3 0-.2 0-.3-.2-.3h-1.4z"/><path d="M10.2 3.6c4.4-.1 8.2 3.6 8.2 8.2.1 4.6-3.7 8.4-8.3 8.4-4.5 0-8.1-3.6-8.2-7.9-.1-5 3.9-8.7 8.3-8.7zM4.9 16.7h2.2c.1 0 .2 0 .3-.1.3-.6.8-1.2 1.1-1.8.5-.9 1.1-1.7 1.6-2.7 0-.1.1-.1.2-.1s.1.1.2.2c.2.4.3.7.4 1.1.4 1.1.9 2.3 1.3 3.4.2.5.2.5.8.3h.2c.9-.3 1.8-.6 2.6-.8.1 0 .2-.1.1-.2-.2-.5-.4-1-.5-1.5-.1-.2-.2-.2-.3-.1-.3.1-.7.2-1 .3-.2.1-.2 0-.3-.1-.1-.2-.1-.5-.2-.7-.4-.9-.7-1.8-1.1-2.7-.7-1.7-1.3-3.3-1.9-5 0-.1-.1-.2-.3-.2H7.7c-.2 0-.2.1-.2.3v1.4c0 .2.1.2.2.2h1c.2 0 .3.1.4.2-.1.1 0 .4.2.7.1.2.1.3 0 .5-.7 1.3-1.5 2.6-2.2 3.9-.8 1.1-1.4 2.3-2.2 3.5zm14.8-10h1.4c.2 0 .3.1.2.3 0 .2 0 .3-.2.3h-1.8c-.2 0-.4.1-.4-.1-.1-.2-.1-.5.1-.7.3-.4.7-.8 1-1.3.2-.3.4-.5.5-.8.1-.2.1-.3.1-.5 0-.3-.1-.5-.4-.6-.3 0-.5.1-.6.4-.1.2-.6.3-.7.2-.1 0 0-.1 0-.2 0-.2.1-.4.3-.6.4-.3 1.3-.4 1.8-.1.4.3.6 1 .3 1.6-.3.6-.8 1.2-1.3 1.8-.1 0-.2.1-.3.3z" fill="#fff"/><path d="M4.9 16.7L7 13.1c.7-1.3 1.5-2.6 2.2-3.9.1-.2.1-.3 0-.5s-.2-.5-.3-.8c0-.1-.1-.2-.3-.2h-1c-.2 0-.2-.1-.2-.2V6.1c0-.2 0-.3.2-.3h2.6c.1 0 .2.1.3.2.6 1.7 1.3 3.3 1.9 5 .4.9.7 1.8 1.1 2.7.1.2.1.5.2.7.1.1.1.2.3.1.3-.1.7-.2 1-.3.2-.1.3-.1.3.1.2.5.3 1 .5 1.5 0 .1 0 .2-.1.2-.9.3-1.8.5-2.6.8h-.2c-.5.2-.5.2-.8-.3-.4-1.1-.9-2.2-1.3-3.4-.1-.4-.3-.7-.4-1.1 0-.1 0-.2-.2-.2-.1 0-.2 0-.2.1-.4.9-1.1 1.8-1.6 2.7-.3.6-.8 1.2-1.1 1.8-.1.1-.2.1-.3.1-.6.2-1.3.2-2.1.2z"/></svg>