<svg xmlns="http://www.w3.org/2000/svg" viewBox="0 0 24 23.7"><path d="M18.7 11.7c0 1.7-.1 3.3-.6 5-.6 2.2-1.7 4.1-3.4 5.6-.5.5-1.1.9-1.7 1.2-.7.3-1.3.3-2 0-1-.5-1.8-1.2-2.5-2C7 19.8 6 17.9 5.7 15.7c-.1-.7-.2-1.5-.3-2.3-.1-.9-.1-1.9 0-2.8.2-3.2.8-6.3 2.5-9.1.2-.4.5-.8.8-1.1.1-.1.2-.2.4-.3.1-.1.3-.1.4 0 .1.1.1.3.1.4 0 .4-.1.7-.2 1-.3 1.3-.5 2.5-.6 3.8-.1 1.6 0 3.1.5 4.6.3.9.8 1.8 1.6 2.5l.2.2c.5.4 1.1.4 1.6 0s.9-.8 1.2-1.4c.7-1.2 1-2.4 1.1-3.8.2-2.1-.2-4.2-.7-6.3-.1-.2-.1-.4-.1-.6 0-.4.2-.5.5-.3s.6.5.8.7c.8 1 1.3 2.2 1.7 3.4.6 1.6.9 3.2 1.1 4.8.2.8.3 1.7.4 2.6zm-7.9 8.9s.1 0 0 0c-.1-.5-.1-.9-.3-1.4-.3-.9-1-1.5-1.9-1.6-.5-.1-.9.1-1 .5-.1.2-.1.4-.1.6.1.9.6 1.6 1.3 2.2.4.3.8.5 1.4.6.3 0 .5-.1.6-.4v-.5zm2.3 0v.1c0 .7.3.9.9.7.8-.2 1.3-.7 1.8-1.3.4-.5.6-1.1.6-1.7 0-.6-.3-.9-.9-.9-.4 0-.8.1-1.2.4-.8.7-1.1 1.7-1.2 2.7z"/></svg>