<svg xmlns="http://www.w3.org/2000/svg" viewBox="0 0 24 23.7"><path d="M12.2 23.7h-.4c-.6-.1-1.3-.2-1.9-.3-2.7-.4-4.6-1.8-5.3-4.4-.3-1.2-.5-2.5-.6-3.8-.2-1.4-.5-2.7-1.3-3.8-.6-.8-1.1-1.7-1.4-2.6C.3 6 1.6 2.2 4.1.5l.6-.3c.5-.2.8 0 .8.6 0 .2 0 .5-.1.7 0 .3 0 .6.4.7.4 0 .5.3.4.6-.1.4-.3.8-.6 1.1-1 1.1-1.4 2.4-1.2 3.8.2 1.3.9 1.8 2.2 1.6 1.7-.2 3.4-.5 5.1-.4 1.9 0 3.8.3 5.8.5 1 .1 1.6-.2 1.9-1.2.1-.3.1-.6.2-1 .1-1.3-.4-2.4-1.2-3.4-.3-.3-.5-.7-.6-1.1-.1-.1.2-.6.3-.6.6 0 .6-.4.5-.8 0-.5-.2-1 .4-1.4V0c.9.5 1.7 1.1 2.3 1.9 1.4 1.9 2 4 1.5 6.4-.2 1.1-.8 2-1.5 2.9-.7.9-1.1 1.9-1.3 3-.2 1.3-.3 2.5-.5 3.8-.5 3.1-2.5 5-5.6 5.5-.5.1-1.1.2-1.7.2zm4.4-9.1c-1 0-1.6.4-2.2 1-.8.9-1.2 2-1.3 3.2-.1 1.5.6 2.6 2 2.7.8.1 1.5-.2 2-.8 1.2-1.3 1.6-2.9 1.3-4.6-.1-.9-.9-1.5-1.8-1.5zm-9.1 0c-1 0-1.8.6-2 1.6-.1.5-.2 1-.1 1.6.1 1.4.6 2.7 1.9 3.5 1.5 1 3.3.1 3.4-1.7.1-1.6-.4-3-1.4-4.1-.5-.6-1-.9-1.8-.9z"/></svg>