<svg xmlns="http://www.w3.org/2000/svg" viewBox="0 0 24 23.7"><path d="M7.1 15h3.8c.4 0 .6.1.5.5v1.9c0 .3-.1.5-.4.5H2.8c-.3 0-.4-.1-.4-.4 0-1 0-1.8.9-2.6 1.4-1.2 2.6-2.6 4-3.7.2-.1.3-.3.5-.5.3-.4.4-.9.2-1.4-.3-.4-.8-.6-1.3-.5-.5 0-1 .3-1.1.8-.1.5-.3.5-.7.5H3c-.5 0-.7-.1-.6-.7.3-1.7 1.3-2.9 2.9-3.3 1.7-.4 3.2-.3 4.5.7 1.6 1.2 1.9 3.6.6 5.1-.5.6-1 1-1.6 1.5-.5.6-1 1-1.7 1.6zm9.7-4.6c-1 1.2-2 2.3-2.9 3.3-.2.3 0 .4.1.6.8 1.1 1.5 2.1 2.3 3.2.7 1 .6 1.3-.2 2.1-.5.5-.9 1-1.5 1.4-.7.6-1.1 1.2-.9 2.1 0 .2.1.5-.2.5-.3 0-.2-.3-.2-.5V.2c0-.1.1-.2.2-.2s.2.1.2.2v4.7c0 .4.1.7.4.9 1.2.9 2.3 1.8 3.4 2.6.3.2.5.5.6.9.1 2 1.2 3.4 2.9 4.4.2.1.4.3.5.5.1.4 0 .7-.3 1-.3.3-.6.3-1 0-.9-.7-1.8-1.3-2.7-2-.3-.2-.3-.6-.4-.9 0-.5-.2-1.1-.3-1.9zm-3.1 7.4v1.3c.8-.4.5-.8 0-1.3z"/><path d="M17.8 2.7c1.4 0 2.4.9 2.4 2.2 0 1.4-1 2.5-2.4 2.5S15.3 6.3 15.3 5c0-1.4 1-2.3 2.5-2.3z"/></svg>