<svg version="1.1" id="Capa_1" xmlns="http://www.w3.org/2000/svg" x="0" y="0" viewBox="0 0 24 23.7" xml:space="preserve"><style>.st0{fill:#fff}</style><path d="M.1 23.7V0h23.8v23.7H.1zm6.8-1.2h3c.2 0 .3-.1.4-.2.7-.8 1.5-1.5 2.2-2.2.1-.1.2-.2.4-.2h3.4c.2 0 .3-.1.5-.2l5.5-5.5c.1-.1.2-.3.2-.4V1.1H3.4c-.4.1-.4.2-.5.3-.4 1.2-.8 2.3-1.1 3.5 0 .1-.1.3-.1.4v14.4c0 .2.1.3.3.3h4.9v2.5z"/><path class="st0" d="M6.9 22.5v-2.6H2c-.2 0-.3-.1-.3-.3V5.2c0-.1 0-.3.1-.4.4-1.2.8-2.3 1.1-3.4.1-.1.1-.2.3-.2h19.1v12.7c0 .2-.1.3-.2.4l-5.5 5.5c-.1.1-.3.2-.5.2h-3.4c-.2 0-.3 0-.4.2-.7.8-1.5 1.5-2.2 2.2-.1.1-.2.2-.4.2H7c.1-.1 0-.1-.1-.1zm2.5-3.2l.1.1c0-.1.1-.2.1-.2l2.1-2.1c.2-.2.4-.3.6-.3h4.6c.1 0 .3-.1.4-.1l2.9-2.9c.1-.1.1-.2.1-.4V3.5c0-.2-.1-.3-.3-.3H5c-.2 0-.3.1-.3.3v13.1c0 .3.1.3.3.3h4.2c.2.7.2 1.5.2 2.4z"/><path d="M9.4 19.3v-2.5H5.2c-.2 0-.3 0-.3-.3V3.4c0-.2.1-.3.3-.3h15c.2 0 .3.1.3.3v9.9c0 .1-.1.3-.1.4l-2.9 2.9c-.1.1-.2.1-.4.1h-4.6c-.3 0-.4.1-.6.3l-2.1 2.1c-.1.1-.1.2-.1.2h-.3zm2.6-6.5V7.1h-1.9v5.7H12zm5.2 0V7.1h-1.9v5.7h1.9z"/><path class="st0" d="M12 12.8h-1.9V7.1H12v5.7zm5.2 0h-1.9V7.1h1.9v5.7z"/></svg>