<svg xmlns="http://www.w3.org/2000/svg" viewBox="0 0 24 23.7"><path d="M6.3 23.7v-2.8H.9c-.2 0-.3-.1-.3-.3v-16c0-.1 0-.3.1-.4.3-1.4.8-2.7 1.2-3.9 0-.2.1-.3.3-.3h21.2v14.1c0 .2-.1.3-.2.5l-6.1 6.1c-.1.1-.3.2-.5.2h-3.8c-.2 0-.3.1-.4.2l-2.5 2.5c-.1.1-.3.2-.5.2h-3c.1-.1 0-.1-.1-.1zm2.8-3.6l.1.1c0-.1.1-.2.1-.3l2.4-2.4c.2-.2.4-.3.7-.3h5.1c.1 0 .3-.1.4-.2l3.3-3.3c.1-.1.2-.3.2-.4v-11c0-.3-.1-.3-.3-.3H4.4c-.3 0-.3.1-.3.3v14.5c0 .3.1.3.3.3h4.7v3z"/><path d="M12 12.9H9.9V6.5H12v6.4zm5.7 0h-2.1V6.5h2.1v6.4z"/></svg>